<svg width="512" height="512" viewBox="0 0 512 512" fill="none" xmlns="http://www.w3.org/2000/svg">
  <circle cx="366" cy="154" r="52" fill="#FDBA4D"/>

  <path
    d="M0 286C66 246 128 230 198 230C270 230 320 268 384 268C432 268 472 256 512 236V344H0V286Z"
    fill="#9ED8F0"
  />

  <path
    d="M0 344C74 296 142 280 214 280C288 280 344 318 404 318C446 318 482 308 512 292V406H0V344Z"
    fill="#5DB6D8"
  />

  <path
    d="M0 404C82 352 156 336 232 336C312 336 370 374 428 374C460 374 488 368 512 358V512H0V404Z"
    fill="#1E7FA8"
  />
</svg>
