<svg xmlns="http://www.w3.org/2000/svg" viewBox="0 0 64 64">
  <defs>
    <linearGradient id="sky" x1="0" y1="0" x2="0" y2="1">
      <stop offset="0%" stop-color="#6ec8ff"/>
      <stop offset="100%" stop-color="#d7f1ff"/>
    </linearGradient>
    <linearGradient id="sea" x1="0" y1="0" x2="0" y2="1">
      <stop offset="0%" stop-color="#1082c8"/>
      <stop offset="100%" stop-color="#0a4b85"/>
    </linearGradient>
  </defs>
  <rect width="64" height="64" rx="12" fill="url(#sky)"/>
  <circle cx="48" cy="16" r="7" fill="#ffd36b"/>
  <path d="M0 30 C8 26,16 34,24 30 C32 26,40 34,48 30 C56 26,60 30,64 29 V64 H0 Z" fill="url(#sea)"/>
  <path d="M0 39 C8 35,16 43,24 39 C32 35,40 43,48 39 C56 35,60 39,64 38 V64 H0 Z" fill="#0e6daf" opacity="0.95"/>
  <path d="M0 48 C8 44,16 52,24 48 C32 44,40 52,48 48 C56 44,60 48,64 47 V64 H0 Z" fill="#0a5d97" opacity="0.98"/>
</svg>
